<svg width="52" height="120" viewBox="0 0 52 120" fill="none" xmlns="http://www.w3.org/2000/svg">
<path d="M13.3351 88.9993C21.3371 91.1435 29.5622 86.3947 31.7063 78.3927L35.5886 63.9038M13.3351 88.9993C5.33314 86.8552 0.584398 78.6301 2.72853 70.6282L6.61081 56.1393M13.3351 88.9993L17.2174 74.5104M13.3351 88.9993L5.57056 117.977C9.63999 108.585 17.784 105.721 23.9417 107.37M17.2174 74.5104L6.61081 56.1393M17.2174 74.5104L35.5886 63.9038M17.2174 74.5104L21.0997 60.0216M6.61081 56.1393L10.4931 41.6504M35.5886 63.9038L39.4709 49.4149M21.0997 60.0216L24.982 45.5327M21.0997 60.0216L10.4931 41.6504M21.0997 60.0216L39.4709 49.4149M24.982 45.5327L28.8643 31.0438M24.982 45.5327L14.3754 27.1615M24.982 45.5327L43.3532 34.9261M10.4931 41.6504L14.3754 27.1615M39.4709 49.4149L43.3532 34.9261M28.8643 31.0438L36.6288 2.066M28.8643 31.0438L23.561 21.8582M28.8643 31.0438L38.0499 25.7405M14.3754 27.1615L18.2577 12.6726M43.3532 34.9261L47.2354 20.4372M18.2577 12.6726L20.1988 5.42816M18.2577 12.6726L23.561 21.8582M47.2354 20.4372L49.1766 13.1927M47.2354 20.4372L38.0499 25.7405M28.4138 3.74708L23.561 21.8582M42.9027 7.62937L38.0499 25.7405" stroke="black" stroke-width="4" stroke-linecap="round" stroke-linejoin="round"/>
</svg>
