<svg width="941" height="854" viewBox="0 0 941 854" fill="none" xmlns="http://www.w3.org/2000/svg">
<path d="M375.439 496.707L444.982 566.25M375.439 496.707L280.442 522.161M375.439 496.707L400.894 401.71L331.351 332.168M444.982 566.25L419.528 661.247M444.982 566.25L539.979 540.795M419.528 661.247L324.531 686.701M419.528 661.247L489.07 730.789M324.531 686.701L254.988 617.158M324.531 686.701L299.076 781.698M254.988 617.158L280.442 522.161M254.988 617.158L159.991 642.613M280.442 522.161L210.9 452.619M539.979 540.795L552.706 493.297M539.979 540.795L574.75 575.567M584.067 705.335L489.07 730.789M584.067 705.335L653.61 774.877L748.607 749.423L818.15 818.966L913.147 793.511L938.601 698.514L903.83 663.743M584.067 705.335L596.795 657.836M489.07 730.789L463.616 825.786L368.619 851.241L299.076 781.698M210.9 452.619L115.903 478.073M210.9 452.619L223.627 405.12L236.354 357.622M236.354 357.622L331.351 332.168M236.354 357.622L166.811 288.079M331.351 332.168L344.078 284.669M159.991 642.613L90.4484 573.07L115.903 478.073M159.991 642.613L147.264 690.111L134.537 737.61L204.079 807.152L299.076 781.698M115.903 478.073L46.3601 408.531L71.8144 313.534M166.811 288.079L71.8144 313.534M166.811 288.079L192.266 193.082M71.8144 313.534L2.27186 243.991L27.7262 148.994L122.723 123.54M192.266 193.082L122.723 123.54M192.266 193.082L287.263 167.628M122.723 123.54L148.178 28.5426L243.175 3.08825L312.717 72.6309L287.263 167.628M287.263 167.628L322.034 202.399M530.662 411.027L495.891 376.256L448.392 388.983M821.56 641.699L774.061 654.426L761.334 701.925M657.02 597.611L680.769 591.247L704.519 584.883L739.29 619.655" stroke="black" stroke-width="4" stroke-linecap="round" stroke-dasharray="10 12"/>
</svg>
