<svg width="79" height="130" viewBox="0 0 79 130" fill="none" xmlns="http://www.w3.org/2000/svg">
<path d="M19.7613 21.3058C13.0315 23.109 9.03773 30.0264 10.841 36.7562C11.5333 39.3401 12.9795 41.5206 14.8795 43.1246M19.7613 21.3058C26.4911 19.5026 33.4085 23.4963 35.2117 30.2261C36.7263 35.8785 34.1514 41.6633 29.3007 44.439L46.3457 68.2893M19.7613 21.3058L18.2454 15.6483M19.7613 21.3058L21.2772 26.9633M14.8795 43.1246C17.136 45.0294 20.0325 46.1211 23.0665 46.1095L20.2303 75.2869M14.8795 43.1246L11.5265 77.6191M34.8984 37.7605L55.0496 65.9571M20.2303 75.2869L15.14 127.653L8.91947 104.438L11.5265 77.6191M20.2303 75.2869L33.288 71.7881M46.3457 68.2893L76.9373 111.095L70.7168 87.8796L59.5259 72.2207L55.0496 65.9571M46.3457 68.2893L33.288 71.7881M55.0496 65.9571L64.1867 63.5088L11.5265 77.6191M11.5265 77.6191L2.38934 80.0674M18.2454 15.6483L14.7638 16.5812L11.4988 4.3958L14.9803 3.46292L18.4619 2.53004L21.7269 14.7154L18.2454 15.6483ZM31.7721 66.1306L33.288 71.7881M33.288 71.7881L34.8039 77.4456" stroke="black" stroke-width="4" stroke-linecap="round" stroke-linejoin="round"/>
</svg>
