<svg width="105" height="105" viewBox="0 0 105 105" fill="none" xmlns="http://www.w3.org/2000/svg">
<path d="M12.072 63.2052C15.05 74.319 22.2508 83.1737 31.4856 88.5054M12.072 63.2052C9.09404 52.0913 10.9028 40.8225 16.2345 31.5877M12.072 63.2052L32.1955 57.8131M12.072 63.2052L4.02262 65.362M41.5348 12.1741C52.6487 9.19617 63.9174 11.0049 73.1522 16.3366M41.5348 12.1741C30.4209 15.1521 21.5662 22.3529 16.2345 31.5877M41.5348 12.1741L46.9268 32.2976M41.5348 12.1741L39.378 4.12475M92.5658 41.6369C95.5438 52.7508 93.735 64.0196 88.4033 73.2544M92.5658 41.6369C89.5879 30.523 82.387 21.6684 73.1522 16.3366M92.5658 41.6369L72.4424 47.029M92.5658 41.6369L100.615 39.4801M63.103 92.6679C51.9892 95.6459 40.7204 93.8371 31.4856 88.5054M63.103 92.6679C74.2169 89.69 83.0716 82.4892 88.4033 73.2544M63.103 92.6679L57.711 72.5445M63.103 92.6679L65.2599 100.717M31.4856 88.5054L41.9022 70.4632M31.4856 88.5054L27.3189 95.7223M88.4033 73.2544L70.3611 62.8377M88.4033 73.2544L95.6202 77.421M73.1522 16.3366L62.7356 34.3788M73.1522 16.3366L77.3189 9.11976M16.2345 31.5877L34.2767 42.0044M16.2345 31.5877L9.01763 27.421M32.1955 57.8131C29.2175 46.6992 35.813 35.2755 46.9268 32.2976M32.1955 57.8131C33.6844 63.37 37.2848 67.7974 41.9022 70.4632M46.9268 32.2976C58.0407 29.3196 69.4644 35.9151 72.4424 47.029M72.4424 47.029C75.4203 58.1428 68.8248 69.5665 57.711 72.5445M57.711 72.5445C52.154 74.0335 46.5196 73.1291 41.9022 70.4632M73.1522 88.5054L77.3189 95.7223M27.3189 9.11977L31.4856 16.3366M92.5658 63.2052L100.615 65.362M4.02262 39.4801L12.072 41.6369M88.4033 31.5877L95.6202 27.421M9.01765 77.421L16.2345 73.2544M63.103 12.1741L65.2599 4.12475M39.378 100.717L41.5348 92.6679M81.7817 81.8838L87.6743 87.7764M16.9636 17.0657L22.8561 22.9582M93.9856 52.421L102.319 52.421M2.31891 52.421L10.6522 52.421M81.7817 22.9582L87.6742 17.0657M16.9636 87.7764L22.8561 81.8838M52.3189 10.7544L52.3189 2.42102M52.3189 102.421L52.3189 94.0877" stroke="black" stroke-width="4" stroke-linecap="round"/>
</svg>
